<svg id="visual" viewBox="0 0 1750 950" width="1750" height="950" xmlns="http://www.w3.org/2000/svg" xmlns:xlink="http://www.w3.org/1999/xlink" version="1.1"><rect x="0" y="0" width="1750" height="950" fill="#ffffff"></rect><path d="M0 814L175 820L350 847L525 754L700 782L875 831L1050 779L1225 787L1400 729L1575 590L1750 738L1750 951L1575 951L1400 951L1225 951L1050 951L875 951L700 951L525 951L350 951L175 951L0 951Z" fill="#8fbcee"></path><path d="M0 788L175 805L350 820L525 763L700 771L875 728L1050 623L1225 617L1400 653L1575 819L1750 836L1750 951L1575 951L1400 951L1225 951L1050 951L875 951L700 951L525 951L350 951L175 951L0 951Z" fill="#92b6f0"></path><path d="M0 709L175 836L350 704L525 858L700 764L875 681L1050 786L1225 645L1400 741L1575 792L1750 836L1750 951L1575 951L1400 951L1225 951L1050 951L875 951L700 951L525 951L350 951L175 951L0 951Z" fill="#99aef0"></path><path d="M0 829L175 776L350 722L525 890L700 754L875 699L1050 818L1225 869L1400 692L1575 695L1750 852L1750 951L1575 951L1400 951L1225 951L1050 951L875 951L700 951L525 951L350 951L175 951L0 951Z" fill="#a3a7ee"></path><path d="M0 874L175 865L350 793L525 833L700 860L875 858L1050 795L1225 816L1400 725L1575 854L1750 797L1750 951L1575 951L1400 951L1225 951L1050 951L875 951L700 951L525 951L350 951L175 951L0 951Z" fill="#ae9eea"></path><path d="M0 800L175 871L350 777L525 854L700 854L875 871L1050 898L1225 779L1400 900L1575 824L1750 769L1750 951L1575 951L1400 951L1225 951L1050 951L875 951L700 951L525 951L350 951L175 951L0 951Z" fill="#ba94e3"></path><path d="M0 890L175 805L350 892L525 820L700 880L875 843L1050 848L1225 912L1400 803L1575 892L1750 870L1750 951L1575 951L1400 951L1225 951L1050 951L875 951L700 951L525 951L350 951L175 951L0 951Z" fill="#c78ada"></path><path d="M0 926L175 836L350 934L525 935L700 911L875 873L1050 918L1225 836L1400 923L1575 876L1750 886L1750 951L1575 951L1400 951L1225 951L1050 951L875 951L700 951L525 951L350 951L175 951L0 951Z" fill="#d27fce"></path><path d="M0 903L175 939L350 940L525 898L700 912L875 941L1050 924L1225 910L1400 905L1575 937L1750 886L1750 951L1575 951L1400 951L1225 951L1050 951L875 951L700 951L525 951L350 951L175 951L0 951Z" fill="#dd74c0"></path></svg>